<svg xmlns="http://www.w3.org/2000/svg" version="1.1" width="1000px" height="785px" viewBox="0 0 1000 785" style="shape-rendering:geometricPrecision; text-rendering:geometricPrecision; image-rendering:optimizeQuality; fill-rule:evenodd; clip-rule:evenodd" xmlns:xlink="http://www.w3.org/1999/xlink">
    <g>
      <path class="path" style="opacity:0.975" fill="#fefffe" d="M 106.5,-0.5 C 329.167,-0.5 551.833,-0.5 774.5,-0.5C 772.634,4.58737 770.467,9.58737 768,14.5C 682.396,174.204 596.896,334.038 511.5,494C 490.825,494.833 470.159,494.666 449.5,493.5C 528.021,347.272 606.355,200.939 684.5,54.5C 476.834,53.6667 269.167,53.1667 61.5,53C 75.2071,34.1222 90.2071,16.2889 106.5,-0.5 Z"/>
    </g>
    <g>
      <path class="path" style="opacity:0.972" fill="#fefffe" d="M -0.5,155.5 C -0.5,153.833 -0.5,152.167 -0.5,150.5C 8.77354,132.634 19.1069,115.3 30.5,98.5C 115.242,254.315 199.742,410.315 284,566.5C 284.667,604.5 284.667,642.5 284,680.5C 199.216,525.266 115.216,369.6 32,213.5C 21.067,194.178 10.2337,174.845 -0.5,155.5 Z"/>
    </g>
    <g>
      <path class="path" style="opacity:0.975" fill="#fefffe" d="M 486.5,784.5 C 439.5,784.5 392.5,784.5 345.5,784.5C 346.056,750.495 346.889,716.495 348,682.5C 371.053,640.645 393.719,598.645 416,556.5C 436.768,555.174 457.602,555.174 478.5,556.5C 448.948,611.245 419.115,665.912 389,720.5C 387.219,724.093 385.719,727.76 384.5,731.5C 418.833,731.5 453.167,731.5 487.5,731.5C 487.011,749.163 486.678,766.83 486.5,784.5 Z"/>
    </g>
    <g>
      <path class="path" style="opacity:0.957" fill="#fefffe" d="M 691.5,784.5 C 689.833,784.5 688.167,784.5 686.5,784.5C 655.051,783.358 636.218,767.358 630,736.5C 625.119,712.261 629.785,690.261 644,670.5C 656.855,656.826 672.688,650.493 691.5,651.5C 705.417,651.535 718.583,654.535 731,660.5C 728.165,669.861 724.998,679.194 721.5,688.5C 681.089,671.295 662.589,684.628 666,728.5C 668.78,747.977 679.947,756.477 699.5,754C 708.159,752.585 716.492,750.085 724.5,746.5C 725.499,756.812 725.832,767.145 725.5,777.5C 714.421,781.439 703.088,783.773 691.5,784.5 Z"/>
    </g>
    <g>
      <path class="path" style="opacity:0.948" fill="#fefffe" d="M 999.5,652.5 C 999.5,662.5 999.5,672.5 999.5,682.5C 985.833,682.5 972.167,682.5 958.5,682.5C 958.5,688.5 958.5,694.5 958.5,700.5C 971.167,700.5 983.833,700.5 996.5,700.5C 996.5,710.167 996.5,719.833 996.5,729.5C 983.833,729.5 971.167,729.5 958.5,729.5C 958.5,737.167 958.5,744.833 958.5,752.5C 972.167,752.5 985.833,752.5 999.5,752.5C 999.5,762.5 999.5,772.5 999.5,782.5C 973.833,782.5 948.167,782.5 922.5,782.5C 922.5,739.167 922.5,695.833 922.5,652.5C 948.167,652.5 973.833,652.5 999.5,652.5 Z"/>
    </g>
    <g>
      <path class="path" style="opacity:0.96" fill="#fefffe" d="M 570.5,784.5 C 564.167,784.5 557.833,784.5 551.5,784.5C 527.817,781.653 512.983,768.653 507,745.5C 506.5,714.835 506.333,684.168 506.5,653.5C 518.5,653.5 530.5,653.5 542.5,653.5C 542.333,681.835 542.5,710.169 543,738.5C 544.895,748.965 551.228,754.298 562,754.5C 571.962,754.202 577.962,749.202 580,739.5C 580.5,710.835 580.667,682.169 580.5,653.5C 592.5,653.5 604.5,653.5 616.5,653.5C 616.667,683.502 616.5,713.502 616,743.5C 610.761,768.344 595.594,782.011 570.5,784.5 Z"/>
    </g>
    <g>
      <path class="path" style="opacity:0.955" fill="#fefffe" d="M 743.5,653.5 C 755.5,653.5 767.5,653.5 779.5,653.5C 779.5,696.5 779.5,739.5 779.5,782.5C 767.5,782.5 755.5,782.5 743.5,782.5C 743.5,739.5 743.5,696.5 743.5,653.5 Z"/>
    </g>
    <g>
      <path class="path" style="opacity:0.975" fill="#fefffe" d="M 796.5,653.5 C 814.836,653.333 833.17,653.5 851.5,654C 887.689,658.364 905.689,678.864 905.5,715.5C 906.537,751.252 889.87,773.085 855.5,781C 835.862,782.363 816.195,782.863 796.5,782.5C 796.5,739.5 796.5,696.5 796.5,653.5 Z M 831.5,682.5 C 856.86,679.524 869.194,690.857 868.5,716.5C 869.877,742.791 857.544,754.791 831.5,752.5C 831.5,729.167 831.5,705.833 831.5,682.5 Z"/>
    </g>
  </svg>
  